<svg xmlns="http://www.w3.org/2000/svg" viewBox="0 0 24 22" fill="none" stroke="#536b75" stroke-width="1.6" stroke-linecap="round" stroke-linejoin="round">
  <path d="M2 5a3 3 0 013-3h14a3 3 0 013 3v9a2 2 0 01-2 2H4a2 2 0 01-2-2V5z"/>
  <line x1="2" y1="10" x2="22" y2="10"/>
  <rect x="4.5" y="4.5" width="3" height="3" rx="0.7"/>
  <rect x="9" y="4.5" width="3" height="3" rx="0.7"/>
  <rect x="13.5" y="4.5" width="3" height="3" rx="0.7"/>
  <rect x="18" y="4.5" width="2" height="3" rx="0.7"/>
  <circle cx="6.5" cy="18" r="2.8"/>
  <circle cx="17.5" cy="18" r="2.8"/>
  <line x1="6.5" y1="16" x2="6.5" y2="15.2"/>
  <line x1="17.5" y1="16" x2="17.5" y2="15.2"/>
  <line x1="9.3" y1="18" x2="14.7" y2="18"/>
</svg>
