<svg preserveAspectRatio="xMidYMid meet" viewBox="0 0 68.4 20.2105" fill="none" xmlns="http://www.w3.org/2000/svg">
<path fill-rule="evenodd" clip-rule="evenodd" d="M4.27488 9.02021L4.27317 9.60492H6.85449C7.37256 9.60492 7.79278 10.0111 7.79278 10.5118V12.1928C7.79278 12.6936 7.37256 13.0998 6.85449 13.0998H4.27317V18.665C4.27317 19.166 3.85295 19.5719 3.33488 19.5719H0.938286C0.419971 19.5719 0 19.166 0 18.665V8.9695H0.00170819C0.0256229 4.36987 3.23288 0.568882 7.36231 0.00869932C7.92162 -0.0672496 8.41846 0.36415 8.41846 0.91018V3.39031C8.41846 3.82101 8.10294 4.18353 7.66808 4.27646C5.74026 4.68876 4.27488 6.65895 4.27488 9.02021ZM59.9836 11.839H59.9815V18.6675C59.9815 19.1718 60.4191 19.5809 60.9589 19.5809H63.4338C63.9814 19.5809 64.422 19.1602 64.4108 18.6485L64.2604 11.839H64.2599C64.295 9.67459 65.7264 7.87505 67.6115 7.47666C68.0669 7.38045 68.4 7.01793 68.4 6.58153V4.3798C68.4 3.82581 67.8758 3.39368 67.2893 3.47208C63.1962 4.02061 60.023 7.55767 59.9836 11.839ZM53.8528 10.2684C53.7183 8.896 52.4071 7.55534 50.6251 7.55534C48.8095 7.55534 47.3303 8.86402 47.1284 10.2684H53.8528ZM57.4062 16.7992C57.7961 17.169 57.7796 17.7752 57.3695 18.1244C55.7847 19.4741 53.5592 20.2105 51.3841 20.2105C46.5087 20.2105 42.844 17.0188 42.844 12.1677C42.844 7.85856 45.9371 4.09247 50.7788 4.09247C55.2842 4.09247 58.4782 7.69909 58.4782 12.0078C58.4782 12.1123 58.476 12.217 58.4718 12.3206C58.4518 12.807 58.025 13.1888 57.5123 13.1888H47.0803C47.3157 15.359 49.1651 16.8593 51.4849 16.8593C52.9239 16.8593 54.1388 16.2601 54.9715 15.6184C55.3479 15.3284 55.8973 15.3666 56.24 15.6921L57.4062 16.7992ZM38.3146 4.63228L34.1248 13.5783L29.9352 4.63228C29.7812 4.30397 29.4408 4.09247 29.0653 4.09247H26.661C25.9656 4.09247 25.5041 4.78359 25.7948 5.38954L32.3664 19.1022C32.5221 19.4267 32.8604 19.6349 33.2328 19.6349H35.0167C35.3892 19.6349 35.7277 19.4267 35.8832 19.1022L42.455 5.38954C42.7454 4.78359 42.2839 4.09247 41.5886 4.09247H39.1842C38.8088 4.09247 38.4683 4.30397 38.3146 4.63228ZM21.2255 10.2684C21.091 8.896 19.7798 7.55534 17.9978 7.55534C16.1822 7.55534 14.7027 8.86402 14.501 10.2684H21.2255ZM24.5465 16.5786C25.0786 17.0837 25.0302 17.9154 24.4449 18.3647C22.8861 19.5613 20.7993 20.2105 18.7565 20.2105C13.8814 20.2105 10.2166 17.0188 10.2166 12.1677C10.2166 7.85856 13.3098 4.09247 18.1515 4.09247C22.6567 4.09247 25.8509 7.69909 25.8509 12.0078C25.8509 12.1123 25.8487 12.217 25.8444 12.3208C25.8245 12.807 25.3976 13.1888 24.8849 13.1888H14.453C14.6884 15.359 16.5375 16.8593 18.8576 16.8593C20.1783 16.8593 21.3105 16.3544 22.1315 15.7751C22.6437 15.4139 23.3513 15.444 23.8026 15.8724L24.5465 16.5786Z" fill="#031419"/>
</svg>
