<svg width="20" height="20" viewBox="0 0 20 20" fill="none" xmlns="http://www.w3.org/2000/svg">
<path d="M2 10C2 5.59375 5.5625 2 10 2C14.4062 2 18 5.59375 18 10C18 14.4375 14.4062 18 10 18C5.5625 18 2 14.4375 2 10ZM13.5938 8.625C13.9375 8.28125 13.9375 7.75 13.5938 7.40625C13.25 7.0625 12.7188 7.0625 12.375 7.40625L9 10.7812L7.59375 9.40625C7.25 9.0625 6.71875 9.0625 6.375 9.40625C6.03125 9.75 6.03125 10.2812 6.375 10.625L8.375 12.625C8.71875 12.9688 9.25 12.9688 9.59375 12.625L13.5938 8.625Z" fill="#6F41D7"/>
</svg>
